<svg xmlns="http://www.w3.org/2000/svg" viewBox="0 0 40 40">
  <!-- Orange rounded-square background -->
  <rect width="40" height="40" rx="9" fill="#F5820D"/>
  <!-- Stylised "a" as paths (no font dependency) -->
  <!-- Bowl of the 'a' -->
  <path d="M20 11 C14.5 11 10.5 15 10.5 20.5 C10.5 26 14.5 30 20 30 C22.4 30 24.6 29.1 26.2 27.6 L26.2 29.5 L29.5 29.5 L29.5 20.5 C29.5 15 25.5 11 20 11 Z M20 26.8 C16.4 26.8 13.7 24.1 13.7 20.5 C13.7 16.9 16.4 14.2 20 14.2 C23.6 14.2 26.3 16.9 26.3 20.5 C26.3 24.1 23.6 26.8 20 26.8 Z" fill="white"/>
  <!-- Dot accent (top-right) -->
  <circle cx="32" cy="9" r="3.5" fill="white" opacity="0.9"/>
</svg>
